{"title":"Trade of Innocents 2012 DVD9rip English Klam","uid":8139391,"size":1660863681,"categoryP":"video","categoryS":"movies","magnet":"?xt=urn:btih:65ae61a68cf368e1db9a23e8ac816e4f70c047b8&amp;dn=Trade+of+Innocents+2012+DVD9rip+English+Klam&amp;tr=udp%3A%2F%2Ftracker.openbittorrent.com%3A80&amp;tr=udp%3A%2F%2Fopen.demonii.com%3A1337&amp;tr=udp%3A%2F%2Ftracker.coppersurfer.tk%3A6969&amp;tr=udp%3A%2F%2Fexodus.desync.com%3A6969","seeders":2,"leechers":0,"uploader":"Klambake","files":-1,"time":1360777079,"description":"With: Mira Sorvino, Dermot Mulroney and John Billingsley\n\nAlex (Dermot Mulroney) en Claire (Mira Sorvino) Becker zijn een getrouwd Amerikaans stel dat rouwt om het verlies van hun dochter. Ze besluiten in Cambodja de strijd aan te gaan tegen de mensenhandel. Ze groeien uit tot de enige hoop en vertrouwenspersonen van een jong meisje dat ze proberen te redden uit de klauwen van een sadistische en onmenselijke mensenhandelaar die meisjes levert aan bordelen in de achterbuurten.\n\nA couple grieving the loss of their own daughter set out to rescue young girls sold into the sex slave trade. \n &lt;a href=&quot;\nhttp://www.imdb.com/title/tt1772408&quot; rel=&quot;nofollow&quot; target=&quot;_NEW&quot;&gt;\nhttp://www.imdb.com/title/tt1772408&lt;/a&gt;\t\n\n------------------------ Dutch Friends ------------------------\n---------------------------------------------------------------\n- Bezoek ook eens mijn vrienden op: &lt;a href=&quot; http://www.Film-Test.nl&quot; rel=&quot;nofollow&quot; target=&quot;_NEW&quot;&gt; http://www.Film-Test.nl&lt;/a&gt; --\n----- voor mijn Nederlandse Sync. ondertitels ---- en meer ----\n------- http://www.Film-Test.nl ---- Over Films en meer -------\n---------------------------------------------------------------\n\nGeneral:\n\nComplete name                    : Trade of InnocentsTrade of Innocents.avi\nFormat                           : AVI\nFormat/Info                      : Audio Video Interleave\nFile size                        : 1.54 GiB\nDuration                         : 1h 30mn\nOverall bit rate                 : 2 439 Kbps\n\nVideo:\n\nFormat                           : MPEG-4 Visual\nFormat profile                   : Simple@L3\nFormat settings, BVOP            : No\nFormat settings, QPel            : No\nFormat settings, GMC             : No warppoints\nFormat settings, Matrix          : Default (H.263)\nCodec ID                         : XVID\nCodec ID/Hint                    : XviD\nDuration                         : 1h 30mn\nBit rate                         : 1 980 Kbps\nWidth                            : 720 pixels\nHeight                           : 304 pixels\nDisplay aspect ratio             : 2.35:1\nFrame rate                       : 23.976 fps\nColor space                      : YUV\nChroma subsampling               : 4:2:0\nBit depth                        : 8 bits\nScan type                        : Progressive\nCompression mode                 : Lossy\nBits/(Pixel*Frame)               : 0.377\nStream size                      : 1.25 GiB (81%)\nWriting library                  : XviD 1.1.2 (UTC 2006-11-01)\n\nAudio:\n\nFormat                           : AC-3\nFormat/Info                      : Audio Coding 3\nMode extension                   : CM (complete main)\nCodec ID                         : 2000\nDuration                         : 1h 30mn\nBit rate mode                    : Constant\nBit rate                         : 448 Kbps\nChannel(s)                       : 6 channels\nChannel positions                : Front: L C R, Side: L R, LFE\nSampling rate                    : 48.0 KHz\nBit depth                        : 16 bits\nCompression mode                 : Lossy\nStream size                      : 290 MiB (18%)\nAlignment                        : Aligned on interleaves\nInterleave, duration             : 32 ms (0.77 video frame)\nInterleave, preload duration     : 64 ms","torrent":{"xt":"urn:btih:65ae61a68cf368e1db9a23e8ac816e4f70c047b8","amp;dn":"Trade+of+Innocents+2012+DVD9rip+English+Klam","amp;tr":["udp%3A%2F%2Ftracker.openbittorrent.com%3A80","udp%3A%2F%2Fopen.demonii.com%3A1337","udp%3A%2F%2Ftracker.coppersurfer.tk%3A6969","udp%3A%2F%2Fexodus.desync.com%3A6969"],"infoHash":"65ae61a68cf368e1db9a23e8ac816e4f70c047b8","infoHashBuffer":{"type":"Buffer","data":[101,174,97,166,140,243,104,225,219,154,35,232,172,129,110,79,112,192,71,184]},"announce":[],"urlList":[]}}